<svg
  xmlns="http://www.w3.org/2000/svg"
  xmlns:xlink="http://www.w3.org/1999/xlink"
  enable-background="new 0 0 512 512"
  id="Layer_1"
  version="1.1"
  viewBox="0 0 512 512"
  xml:space="preserve"
>
  <g>
    <path
      d="M505,260c0,35,0,70,0,105c0,59.4-28.8,100.6-80.4,127.1c-21.2,10.9-44.1,15.8-67.9,15.8   c-67.5,0.1-135,1.2-202.5-0.4c-54.3-1.2-97.7-25-126.9-71.8c-12.2-19.5-18.1-41.1-18.2-64c-0.1-74-0.5-148,0.1-222   C9.6,99,34.3,61.5,76.5,34.9c25-15.7,52.7-22.8,82.1-22.9c65.7-0.1,131.3-0.5,197,0.1c50.7,0.5,92.9,20.1,123.9,61   C496.6,95.7,505,121.6,505,150C505,186.7,505,223.3,505,260z M468,260.5c0-36.8,0-73.7,0-110.5c0-20-5.9-38.2-17.7-54.1   c-22.9-30.9-54.6-46.1-92.4-46.6c-66.7-0.8-133.3-0.3-200-0.2c-20.7,0-40.4,4.9-58.3,15.2c-34.5,19.9-53.8,49.1-53.6,90   c0.2,71.8,0,143.7,0.1,215.5c0,20.1,5.9,38.5,17.9,54.6c23,30.9,54.7,46,92.5,46.4c67,0.8,134,0.3,201,0.2c15.3,0,30.1-3.3,44.2-9   c37.6-15.2,67.8-50.3,66.6-97.4C467.3,329.9,468,295.2,468,260.5z"
    />
    <path
      d="M257.1,366c-64.7-0.2-116.4-51.9-116.1-116.2c0.2-62.8,52.9-114,117.1-113.8c64.1,0.2,116.1,52,115.9,115.5   C373.8,314.9,321.4,366.1,257.1,366z M257.8,173c-44-0.1-79.7,34.8-79.8,77.9c-0.1,42.9,35.5,78,79,78.2   c44.1,0.1,79.9-34.7,80-77.6C337.1,208.2,301.6,173,257.8,173z"
    />
    <path
      d="M412,126.6c0,14.1-11.1,25.5-24.7,25.4c-13.5-0.1-24.4-11.7-24.2-25.9c0.1-13.8,11.1-25.1,24.5-25.1   C401,101,412,112.5,412,126.6z"
    />
  </g>
</svg>